<svg width="345" height="345" viewBox="0 0 345 345" fill="none" xmlns="http://www.w3.org/2000/svg">
<path fill-rule="evenodd" clip-rule="evenodd" d="M20.7012 264.231L324.301 264.231L324.301 264.804L20.7012 264.804L20.7012 264.231Z" fill="#E6E8EB"/>
<path fill-rule="evenodd" clip-rule="evenodd" d="M20.7012 217.228L324.301 217.228L324.301 217.803L20.7012 217.803L20.7012 217.228Z" fill="#E6E8EB"/>
<path fill-rule="evenodd" clip-rule="evenodd" d="M20.7012 171.943L324.301 171.943L324.301 172.529L20.7012 172.529L20.7012 171.943Z" fill="#E6E8EB"/>
<path fill-rule="evenodd" clip-rule="evenodd" d="M20.7012 127.232L324.301 127.232L324.301 127.806L20.7012 127.806L20.7012 127.232Z" fill="#E6E8EB"/>
<path fill-rule="evenodd" clip-rule="evenodd" d="M20.7012 81.375L324.301 81.375L324.301 81.9482L20.7012 81.9482L20.7012 81.375Z" fill="#E6E8EB"/>
<path d="M20.7012 214.172L47.763 178.813L66.368 226.327L78.2076 231.852L88.3558 173.288L96.8126 206.437L123.874 210.857L131.486 167.763L145.016 240.692L171.233 231.852L185.609 199.808L205.906 178.813L211.825 218.592L242.27 255.056L276.943 203.123L279.48 163.343L294.702 206.437L324.301 218.592" stroke="#126CFF"/>
<path d="M20.7012 200.445L37.6148 154.566L58.7569 163.305L73.9792 205.906L92.5842 122.889L98.504 185.152L123.874 168.767L129.794 142.551L152.628 209.183L170.387 212.46L183.072 176.413L210.98 154.566L221.974 212.46L243.116 229.938L268.486 185.152L274.406 114.15L291.32 174.229L324.301 200.445" stroke="#0D2481"/>
</svg>
