<svg width="345" height="345" viewBox="0 0 345 345" fill="none" xmlns="http://www.w3.org/2000/svg">
<rect x="225" y="127.318" width="89.6826" height="89.6827" transform="rotate(-0.203091 225 127.318)" fill="#F8F8F8"/>
<path fill-rule="evenodd" clip-rule="evenodd" d="M252.673 195.263V187.562H287.327V195.263H252.673ZM279.967 156.759H260.031L270 170.556L279.967 156.759ZM295.028 149.058L270 183.712L244.973 149.058H295.028Z" fill="#00B3E6"/>
<rect x="160" y="127" width="90" height="90" fill="url(#paint0_linear)"/>
<path fill-rule="evenodd" clip-rule="evenodd" d="M176.123 157.414C175.697 158.26 175.697 159.367 175.697 161.58V172.182C175.697 177.979 175.697 180.878 176.813 183.092C177.795 185.04 179.361 186.623 181.287 187.616C183.478 188.744 186.345 188.744 192.079 188.744H212.027C214.217 188.744 215.312 188.744 216.148 188.313C216.884 187.934 217.482 187.329 217.856 186.586C218.283 185.74 218.283 184.633 218.283 182.42V171.818C218.283 166.021 218.283 163.122 217.167 160.908C216.185 158.96 214.619 157.377 212.692 156.384C210.502 155.256 207.635 155.256 201.902 155.256H181.953C179.763 155.256 178.668 155.256 177.832 155.687C177.096 156.066 176.498 156.67 176.123 157.414ZM229.302 186.467L223.834 181.859L223.833 181.859C222.942 181.109 222.497 180.733 222.139 180.304C221.42 179.443 220.939 178.405 220.745 177.296C220.649 176.743 220.649 176.157 220.649 174.984V169.016C220.649 167.843 220.649 167.257 220.745 166.704C220.939 165.595 221.42 164.557 222.139 163.696C222.497 163.267 222.942 162.891 223.833 162.141H223.834L229.302 157.533L229.305 157.53C230.644 156.403 231.313 155.839 231.853 155.704C232.958 155.429 234.102 155.971 234.6 157.005C234.844 157.511 234.844 158.393 234.844 160.157V183.843C234.844 185.607 234.844 186.489 234.6 186.995C234.102 188.029 232.958 188.571 231.853 188.296C231.313 188.161 230.643 187.597 229.304 186.469L229.302 186.467Z" fill="#0E71EB"/>
<rect x="95" y="127" width="90" height="90" fill="url(#paint1_linear)"/>
<path d="M161.143 169.479C163.903 169.479 166.141 167.241 166.141 164.481C166.141 161.721 163.903 159.484 161.143 159.484C158.383 159.484 156.145 161.721 156.145 164.481L156.145 169.479L161.143 169.479ZM147.148 169.479C149.909 169.479 152.146 167.241 152.146 164.481L152.146 150.487C152.146 147.727 149.909 145.489 147.148 145.489C144.388 145.489 142.15 147.727 142.15 150.487L142.15 164.481C142.15 167.241 144.388 169.479 147.148 169.479Z" fill="#2EB67D"/>
<path d="M119.16 173.478C116.4 173.478 114.162 175.715 114.162 178.475C114.162 181.235 116.4 183.473 119.16 183.473C121.92 183.473 124.158 181.235 124.158 178.475L124.158 173.478L119.16 173.478ZM133.154 173.478C130.394 173.478 128.156 175.716 128.156 178.476L128.156 192.469C128.156 195.23 130.394 197.467 133.154 197.467C135.915 197.467 138.152 195.23 138.152 192.469L138.152 178.476C138.152 175.716 135.915 173.478 133.154 173.478Z" fill="#E01E5A"/>
<path d="M142.151 192.47C142.151 195.23 144.389 197.468 147.149 197.468C149.909 197.468 152.146 195.23 152.146 192.47C152.146 189.71 149.909 187.472 147.148 187.472L142.151 187.472L142.151 192.47ZM142.151 178.475C142.151 181.236 144.389 183.473 147.149 183.473L161.143 183.473C163.903 183.473 166.141 181.236 166.141 178.475C166.141 175.715 163.903 173.477 161.143 173.477L147.149 173.477C144.389 173.477 142.151 175.715 142.151 178.475Z" fill="#ECB22E"/>
<path d="M138.152 150.486C138.152 147.726 135.914 145.489 133.154 145.489C130.394 145.489 128.156 147.726 128.156 150.486C128.156 153.247 130.394 155.485 133.154 155.485L138.152 155.485L138.152 150.486ZM138.152 164.481C138.152 161.721 135.914 159.483 133.154 159.483L119.16 159.483C116.4 159.483 114.162 161.721 114.162 164.481C114.162 167.241 116.4 169.479 119.16 169.479L133.154 169.479C135.914 169.479 138.152 167.241 138.152 164.481Z" fill="#36C5F0"/>
<rect x="30" y="127" width="90" height="90" fill="#0061FE"/>
<path d="M61.3585 147.867L47.2695 156.863L61.3585 165.86L75.4498 156.863L89.5387 165.86L103.628 156.863L89.5387 147.867L75.4498 156.863L61.3585 147.867Z" fill="white"/>
<path d="M61.3585 183.852L47.2695 174.856L61.3585 165.86L75.4498 174.856L61.3585 183.852Z" fill="white"/>
<path d="M75.4498 174.856L89.5387 165.86L103.628 174.856L89.5387 183.852L75.4498 174.856Z" fill="white"/>
<path d="M75.4498 195.847L61.3585 186.851L75.4498 177.855L89.5387 186.851L75.4498 195.847Z" fill="white"/>
<defs>
<linearGradient id="paint0_linear" x1="250" y1="155.602" x2="160" y2="155.602" gradientUnits="userSpaceOnUse">
<stop stop-color="#F0F0F0"/>
<stop offset="1" stop-color="#FAFAFA"/>
</linearGradient>
<linearGradient id="paint1_linear" x1="185" y1="155.602" x2="95" y2="155.602" gradientUnits="userSpaceOnUse">
<stop stop-color="#F0F0F0"/>
<stop offset="1" stop-color="#FAFAFA"/>
</linearGradient>
</defs>
</svg>
