<svg width="64" height="64" viewBox="0 0 64 64" fill="none" xmlns="http://www.w3.org/2000/svg">
<path fill-rule="evenodd" clip-rule="evenodd" d="M41.2083 22.25C38.5157 22.25 35.883 23.2269 34.0913 25.6156C32.4709 27.776 32 30.4975 32 33.0833C32 35.3122 32.3499 37.642 33.4842 39.6262C28.3986 40.0965 24.4167 44.3749 24.4167 49.5833V58H58V49.5833C58 44.3749 54.0181 40.0965 48.9324 39.6262C50.0668 37.642 50.4167 35.3122 50.4167 33.0833C50.4167 30.4975 49.9458 27.776 48.3253 25.6156C46.5336 23.2269 43.901 22.25 41.2083 22.25ZM36.3333 33.0833C36.3333 28.7698 37.9738 26.5833 41.2083 26.5833C44.4429 26.5833 46.0833 28.7698 46.0833 33.0833C46.0833 37.3969 44.4429 39.5833 41.2083 39.5833C37.9738 39.5833 36.3333 37.3969 36.3333 33.0833ZM28.4167 49.5833C28.4167 46.2696 31.103 43.5833 34.4167 43.5833H48C51.3137 43.5833 54 46.2696 54 49.5833V54H28.4167V49.5833Z" fill="#F7F5F2"/>
<path fill-rule="evenodd" clip-rule="evenodd" d="M15.6747 9.36559C17.4664 6.97688 20.099 6 22.7917 6C25.4843 6 28.117 6.97688 29.9087 9.36559C31.5291 11.526 32 14.2475 32 16.8333C32 19.0619 31.6502 21.3913 30.5163 23.3753L30.4761 23.4449C30.4716 23.4526 30.4671 23.4603 30.4626 23.4679L28.0387 27.6667H16.8333C13.2435 27.6667 10.3333 30.5768 10.3333 34.1667V37.4167H22.4095L19.9077 41.75H6V34.1667C6 28.7664 9.95141 24.2889 15.1207 23.4679C13.9441 21.464 13.5833 19.0966 13.5833 16.8333C13.5833 14.2475 14.0542 11.526 15.6747 9.36559ZM27.6667 16.8333C27.6667 21.1469 26.0262 23.3333 22.7917 23.3333C19.5571 23.3333 17.9167 21.1469 17.9167 16.8333C17.9167 12.5198 19.5571 10.3333 22.7917 10.3333C26.0262 10.3333 27.6667 12.5198 27.6667 16.8333Z" fill="#F7F5F2"/>
</svg>
