<svg width="64" height="64" viewBox="0 0 64 64" fill="none" xmlns="http://www.w3.org/2000/svg">
<path d="M17 8V56H48V8H17ZM44 52H21V12H44V52Z" fill="#F7F5F2"/>
<path d="M32 48C32.5362 48.0432 33.0755 47.9693 33.5804 47.7836C34.0852 47.5978 34.5438 47.3046 34.9242 46.9242C35.3046 46.5438 35.5978 46.0852 35.7836 45.5804C35.9693 45.0755 36.0432 44.5362 36 44C36.0432 43.4638 35.9693 42.9245 35.7836 42.4196C35.5978 41.9148 35.3046 41.4562 34.9242 41.0758C34.5438 40.6954 34.0852 40.4022 33.5804 40.2164C33.0755 40.0307 32.5362 39.9568 32 40C31.4638 39.9568 30.9245 40.0307 30.4196 40.2164C29.9148 40.4022 29.4562 40.6954 29.0758 41.0758C28.6954 41.4562 28.4022 41.9148 28.2164 42.4196C28.0307 42.9245 27.9568 43.4638 28 44C27.9568 44.5362 28.0307 45.0755 28.2164 45.5804C28.4022 46.0852 28.6954 46.5438 29.0758 46.9242C29.4562 47.3046 29.9148 47.5978 30.4196 47.7836C30.9245 47.9693 31.4638 48.0432 32 48Z" fill="#F7F5F2"/>
</svg>
